<svg width="290" height="35" viewBox="0 0 290 35" fill="none" xmlns="http://www.w3.org/2000/svg">
<path d="M48.5615 34.2909L30.6144 34.2909L30.6144 26.5034L48.5615 26.5034L48.5615 34.2909Z" fill="#171626"/>
<path d="M30.6162 17.3813L30.6162 0.471302L38.8813 0.471302L38.8813 17.3813L30.6162 17.3813Z" fill="#171626"/>
<path d="M48.5615 17.3813L30.6144 17.3813L30.6144 9.59382L48.5615 9.59382L48.5615 17.3813Z" fill="#171626"/>
<path d="M8.33298 34.2911H26.2801V26.5036H8.33298V34.2911Z" fill="#171626"/>
<path d="M8.33298 17.3813H26.2801V9.59376H8.33298V17.3813Z" fill="#171626"/>
<path d="M8.33298 26.5029L8.33298 9.59288L0.0678713 9.59288L0.067872 26.5029L8.33298 26.5029Z" fill="#171626"/>
<path d="M48.5615 26.504L48.5615 9.59392L56.8266 9.59392L56.8266 26.504L48.5615 26.504Z" fill="#171626"/>
<path d="M88.5399 29.6627C99.341 29.6627 100.44 24.7813 100.44 22.5625V22.5033H93.2497C93.0927 23.1246 92.4019 25.4321 87.6607 25.4321H87.5665C83.5161 25.4321 82.1974 23.3021 82.1974 21.172V20.9649C82.1974 18.9532 83.4847 17.0302 87.5665 17.0302H87.6607C92.4647 17.0302 93.0927 19.2786 93.2497 19.8999H100.44V19.8111C100.44 17.681 99.1212 12.8588 88.5713 12.8588H86.7816C77.1422 12.8588 75.0385 17.326 75.0385 20.8762V21.4678C75.0385 25.018 77.1736 29.6627 86.813 29.6627H88.5399Z" fill="#171626"/>
<path d="M116.064 29.6627C126.489 29.6627 128.153 25.1067 128.153 21.4383V20.9057C128.153 17.2965 126.363 12.8588 116.064 12.8588H113.835C104.039 12.8588 101.715 17.2373 101.715 20.9057V21.4383C101.715 25.1067 104.07 29.6627 113.866 29.6627H116.064ZM114.965 25.373C110.193 25.373 108.874 23.1246 108.874 21.2607V21.1128C108.874 19.1011 110.193 17.0894 114.965 17.0894H114.997C119.707 17.0894 121.057 19.1307 121.057 21.1128V21.2607C121.057 23.1246 119.738 25.373 114.965 25.373Z" fill="#171626"/>
<path d="M148.868 21.2903C148.868 23.3316 146.67 25.4026 142.525 25.4026H142.368C138.255 25.4026 136.685 23.2133 136.685 21.2903V21.172C136.685 19.1011 137.91 17.0894 142.305 17.0894H142.462C146.607 17.0894 148.868 19.1011 148.868 21.172V21.2903ZM148.868 7.20819V15.4326C148.083 14.7818 145.665 12.918 140.39 12.918H139.888C132.321 12.918 129.526 16.5864 129.526 20.8466V21.4087C129.526 25.8759 132.666 29.6035 140.17 29.6035H140.578C146.01 29.6035 148.46 27.4143 148.931 26.793V29.2189H155.901V7.20819H148.868Z" fill="#171626"/>
<path d="M170.727 16.5568C174.275 16.5568 175.908 17.5627 176.379 19.249H165.075C165.609 17.5627 167.179 16.5568 170.695 16.5568H170.727ZM183.349 23.5979H176.441C176.347 23.9825 175.594 25.6392 170.947 25.6392H170.915C167.053 25.6392 165.358 24.3967 164.95 22.5329H183.443V21.4383C183.443 17.5627 181.622 12.8588 171.7 12.8588H169.785C160.648 12.8588 158.073 16.7935 158.073 20.8762V21.527C158.073 25.6984 160.962 29.6627 169.973 29.6627H171.763C181.842 29.6627 183.349 25.7872 183.349 23.6275V23.5979Z" fill="#171626"/>
<path d="M186.839 7.20819V29.2189H193.307C193.401 28.4793 193.527 27.5918 193.747 26.9705C194.406 27.5918 197.263 29.6035 202.099 29.6035H202.632C210.137 29.6035 213.182 25.7576 213.182 21.4678V20.9057C213.182 16.5568 210.513 12.918 202.852 12.918H202.287C197.232 12.918 194.594 14.9593 193.841 15.5214V7.20819H186.839ZM193.841 21.1424C193.841 19.1011 195.756 17.0302 199.932 17.0302H200.121C204.673 17.0302 206.023 19.1011 206.023 21.1424V21.2607C206.023 23.1837 204.673 25.4026 200.121 25.4026H199.932C195.819 25.4026 193.841 23.2429 193.841 21.2607V21.1424Z" fill="#171626"/>
<path d="M230.392 22.1483C230.392 24.0417 227.975 25.9351 224.238 25.9351C221.852 25.9351 221.161 24.9884 221.161 24.1304V24.1008C221.161 23.1837 221.915 22.8879 223.704 22.6216L230.392 21.6453V22.1483ZM230.581 27.0297C230.832 28.5385 231.899 29.2189 233.25 29.2189H238.933V24.8996H238.022C237.3 24.8996 237.143 24.5742 237.143 24.1008V18.0065C237.143 15.6989 236.515 12.8588 226.719 12.8588H224.992C215.572 12.8588 214.913 16.1427 214.913 18.2431V18.3023H221.412C221.506 17.7698 221.663 16.5273 225.839 16.5273H225.996C230.11 16.5273 230.392 17.2373 230.392 17.829C230.392 18.3319 230.11 18.5686 229.325 18.6573L221.601 19.3378C216.545 19.7815 214.505 21.172 214.505 24.1008V24.3079C214.505 27.0297 216.671 29.5148 222.354 29.5148H222.762C227.723 29.5148 229.858 27.8876 230.581 27.0297Z" fill="#171626"/>
<path d="M251.8 29.6627C261.125 29.6627 262.947 27.1184 262.947 24.1896V24.0121C262.947 20.817 261.314 19.1603 253.527 19.0123L250.513 18.9532C247.593 18.8644 246.965 18.3911 246.965 17.681V17.6219C246.965 16.8231 247.624 16.4385 250.984 16.4385H251.015C254.783 16.4385 255.097 17.474 255.191 18.0656H262.319V17.8586C262.319 15.3735 260.278 12.8588 251.737 12.8588H250.481C241.187 12.8588 239.806 15.3735 239.806 17.829V18.0065C239.806 20.3436 241.564 22.8287 248.911 22.9766L251.926 23.0358C255.222 23.1246 255.631 23.5979 255.631 24.4263V24.4854C255.631 25.2546 255.16 25.9942 251.266 25.9942H251.203C247.122 25.9942 246.87 24.4263 246.87 23.8346H239.649V24.0121C239.649 26.0534 240.653 29.6627 250.513 29.6627H251.8Z" fill="#171626"/>
<path d="M276.928 16.5568C280.476 16.5568 282.109 17.5627 282.58 19.249H271.277C271.81 17.5627 273.38 16.5568 276.897 16.5568H276.928ZM289.551 23.5979H282.643C282.549 23.9825 281.795 25.6392 277.148 25.6392H277.117C273.255 25.6392 271.559 24.3967 271.151 22.5329H289.645V21.4383C289.645 17.5627 287.824 12.8588 277.902 12.8588H275.986C266.849 12.8588 264.275 16.7935 264.275 20.8762V21.527C264.275 25.6984 267.163 29.6627 276.175 29.6627H277.964C288.043 29.6627 289.551 25.7872 289.551 23.6275V23.5979Z" fill="#171626"/>
</svg>
