<?xml version="1.0" encoding="UTF-8"?>
<svg xmlns="http://www.w3.org/2000/svg" version="1.1" viewBox="0 0 917 108">
  <defs>
    <style>
      .cls-1 {
        fill: #fff;
      }
    </style>
  </defs>
  <!-- Generator: Adobe Illustrator 28.7.3, SVG Export Plug-In . SVG Version: 1.2.0 Build 164)  -->
  <g>
    <g id="Layer_1">
      <path class="cls-1" d="M153.4,107h-56.8v-24.6h56.8v24.6Z"/>
      <path class="cls-1" d="M96.6,53.5V0h26.1s0,53.5,0,53.5h-26.1Z"/>
      <path class="cls-1" d="M153.4,53.5h-56.8v-24.6h56.8v24.6Z"/>
      <path class="cls-1" d="M26.1,107h56.8v-24.6H26.1v24.6Z"/>
      <path class="cls-1" d="M26.1,53.5h56.8v-24.6H26.1v24.6Z"/>
      <path class="cls-1" d="M26.1,82.4V28.9H0v53.5h26.1Z"/>
      <path class="cls-1" d="M153.4,82.4V28.9h26.1v53.5h-26.1Z"/>
      <path class="cls-1" d="M279.9,92.4c34.2,0,37.6-15.4,37.6-22.5v-.2h-22.7c-.5,2-2.7,9.3-17.7,9.3h-.3c-12.8,0-17-6.7-17-13.5v-.7c0-6.4,4.1-12.4,17-12.4h.3c15.2,0,17.2,7.1,17.7,9.1h22.7v-.3c0-6.7-4.2-22-37.6-22h-5.7c-30.5,0-37.2,14.1-37.2,25.4v1.9c0,11.2,6.8,25.9,37.3,25.9h5.5Z"/>
      <path class="cls-1" d="M367,92.4c33,0,38.2-14.4,38.2-26v-1.7c0-11.4-5.7-25.5-38.2-25.5h-7.1c-31,0-38.3,13.9-38.3,25.5v1.7c0,11.6,7.5,26,38.4,26h7ZM363.5,78.8c-15.1,0-19.3-7.1-19.3-13v-.5c0-6.4,4.2-12.7,19.3-12.7h0c14.9,0,19.2,6.5,19.2,12.7v.5c0,5.9-4.2,13-19.3,13Z"/>
      <path class="cls-1" d="M470.8,65.9c0,6.5-7,13-20.1,13h-.5c-13,0-18-6.9-18-13v-.4c0-6.6,3.9-12.9,17.8-12.9h.5c13.1,0,20.3,6.4,20.3,12.9v.4ZM470.8,21.3v26c-2.5-2.1-10.1-8-26.8-8h-1.6c-23.9,0-32.8,11.6-32.8,25.1v1.8c0,14.1,9.9,25.9,33.7,25.9h1.3c17.2,0,24.9-6.9,26.4-8.9v7.7h22.1V21.3h-22.3Z"/>
      <path class="cls-1" d="M539.9,50.9c11.2,0,16.4,3.2,17.9,8.5h-35.8c1.7-5.3,6.7-8.5,17.8-8.5h0ZM579.9,73.2h-21.9c-.3,1.2-2.7,6.5-17.4,6.5h0c-12.2,0-17.6-3.9-18.9-9.8h58.5v-3.5c0-12.3-5.8-27.1-37.2-27.1h-6.1c-28.9,0-37.1,12.4-37.1,25.4v2.1c0,13.2,9.1,25.7,37.6,25.7h5.7c31.9,0,36.7-12.3,36.7-19.1h0Z"/>
      <path class="cls-1" d="M590.9,21.3v69.6h20.5c.3-2.3.7-5.1,1.4-7.1,2.1,2,11.1,8.3,26.4,8.3h1.7c23.7,0,33.4-12.2,33.4-25.7v-1.8c0-13.8-8.4-25.3-32.7-25.3h-1.8c-16,0-24.3,6.5-26.7,8.2v-26.3h-22.2ZM613.1,65.4c0-6.5,6.1-13,19.3-13h.6c14.4,0,18.7,6.6,18.7,13v.4c0,6.1-4.3,13.1-18.7,13.1h-.6c-13,0-19.3-6.8-19.3-13.1v-.4Z"/>
      <path class="cls-1" d="M728.7,68.6c0,6-7.6,12-19.5,12s-9.7-3-9.7-5.7h0c0-3,2.4-3.9,8-4.8l21.2-3.1v1.6ZM729.3,84c.8,4.8,4.2,6.9,8.4,6.9h18v-13.7h-2.9c-2.3,0-2.8-1-2.8-2.5v-19.3c0-7.3-2-16.3-33-16.3h-5.5c-29.8,0-31.9,10.4-31.9,17v.2h20.6c.3-1.7.8-5.6,14-5.6h.5c13,0,13.9,2.2,13.9,4.1s-.9,2.3-3.4,2.6l-24.4,2.2c-16,1.4-22.5,5.8-22.5,15.1v.7c0,8.6,6.9,16.5,24.8,16.5h1.3c15.7,0,22.5-5.1,24.7-7.9Z"/>
      <path class="cls-1" d="M796.4,92.4c29.5,0,35.3-8,35.3-17.3v-.6c0-10.1-5.2-15.4-29.8-15.8l-9.5-.2c-9.2-.3-11.2-1.8-11.2-4v-.2c0-2.5,2.1-3.7,12.7-3.7h0c11.9,0,12.9,3.3,13.2,5.1h22.6v-.7c0-7.9-6.5-15.8-33.5-15.8h-4c-29.4,0-33.8,8-33.8,15.7v.6c0,7.4,5.6,15.3,28.8,15.7l9.5.2c10.4.3,11.7,1.8,11.7,4.4v.2c0,2.4-1.5,4.8-13.8,4.8h-.2c-12.9,0-13.7-5-13.7-6.8h-22.8v.6c0,6.5,3.2,17.9,34.4,17.9h4.1Z"/>
      <path class="cls-1" d="M875.9,50.9c11.2,0,16.4,3.2,17.9,8.5h-35.8c1.7-5.3,6.7-8.5,17.8-8.5h0ZM915.9,73.2h-21.9c-.3,1.2-2.7,6.5-17.4,6.5h0c-12.2,0-17.6-3.9-18.9-9.8h58.5v-3.5c0-12.3-5.8-27.1-37.2-27.1h-6.1c-28.9,0-37.1,12.4-37.1,25.4v2.1c0,13.2,9.1,25.7,37.6,25.7h5.7c31.9,0,36.7-12.3,36.7-19.1h0Z"/>
    </g>
  </g>
</svg>