<svg width="666" height="183" viewBox="0 0 666 183" fill="none" xmlns="http://www.w3.org/2000/svg">
<path d="M260.417 0C277.861 0 293.674 3.77402 307.856 11.3121C322.028 18.8503 333.207 29.5268 341.394 43.3417C349.571 57.1467 353.664 73.087 353.664 91.1427C353.664 109.198 349.461 125.139 341.064 138.944C332.667 152.749 321.327 163.425 307.045 170.973C292.763 178.511 276.78 182.285 259.116 182.285C241.451 182.285 225.968 178.511 212.006 170.973C198.045 163.435 187.086 152.759 179.129 138.944C178.228 137.384 177.378 135.795 176.577 134.177C175.736 135.795 174.845 137.384 173.895 138.944C165.498 152.749 154.158 163.425 139.866 170.973C125.584 178.511 109.601 182.285 91.9365 182.285C74.2718 182.285 58.7889 178.511 44.8273 170.973C30.8657 163.435 19.9066 152.759 11.9499 138.944C3.98331 125.139 0 109.198 0 91.1427C0 73.087 4.0934 57.1467 12.2702 43.3417C20.447 29.5367 31.6263 18.8602 45.8081 11.3121C59.9799 3.77402 75.793 0 93.2376 0C110.682 0 126.495 3.77402 140.677 11.3121C154.849 18.8503 166.028 29.5268 174.215 43.3417C175.146 44.9109 176.016 46.5 176.837 48.1188C177.648 46.5 178.518 44.9109 179.449 43.3417C187.626 29.5367 198.805 18.8602 212.987 11.3121C227.159 3.77402 242.972 0 260.427 0H260.417ZM260.417 43.3417C251.229 43.3417 242.912 45.3181 235.446 49.2709C227.98 53.2237 222.105 58.8251 217.801 66.0653C213.498 73.3055 211.346 81.6679 211.346 91.1328C211.346 100.598 213.438 108.96 217.631 116.2C221.824 123.44 227.589 129.042 234.935 132.995C242.282 136.947 250.548 138.924 259.736 138.924C268.924 138.924 277.441 136.947 284.957 132.995C292.473 129.042 298.448 123.44 302.862 116.2C307.286 108.96 309.487 100.598 309.487 91.1328C309.487 81.6679 307.336 73.3055 303.032 66.0653C298.728 58.8251 292.844 53.2237 285.387 49.2709C277.921 45.3181 269.604 43.3417 260.417 43.3417ZM94.0582 43.3417C84.8706 43.3417 76.5537 45.3181 69.0875 49.2709C61.6213 53.2237 55.7464 58.8251 51.4428 66.0653C47.1392 73.3055 44.9874 81.6679 44.9874 91.1328C44.9874 100.598 47.0792 108.96 51.2726 116.2C55.4661 123.44 61.2309 129.042 68.577 132.995C75.9231 136.947 84.19 138.924 93.3677 138.924C102.545 138.924 111.072 136.947 118.589 132.995C126.105 129.042 132.08 123.44 136.494 116.2H170.051C168.13 108.354 167.169 100.002 167.169 91.1328C167.169 83.2768 167.94 75.8281 169.491 68.7766H136.494C133.321 59.6793 126.475 53.2137 119.019 49.261C111.553 45.3082 103.236 43.3318 94.0482 43.3318L94.0582 43.3417ZM576.239 0C593.474 0 608.896 3.61512 622.528 10.8354C636.159 18.0557 646.738 28.3052 654.264 41.5838C661.79 54.8624 665.554 70.1075 665.554 87.319C665.554 93.6951 665.113 99.4257 664.242 104.531H531.742L531.932 106.418C533.304 118.266 537.817 127.622 545.484 134.484C553.55 141.705 563.479 145.32 575.258 145.32C592.273 145.32 604.373 138.199 611.569 123.967H660.97L660.289 126.072C654.885 142.122 645.086 155.381 630.875 165.868C616.042 176.813 597.827 182.275 576.239 182.275C558.795 182.275 543.142 178.501 529.29 170.963C515.439 163.425 504.65 152.749 496.903 138.934C489.157 125.129 485.294 109.189 485.294 91.1328C485.294 75.5401 488.076 61.5663 493.641 49.2212H479.269L477.257 49.251C467.999 49.4993 460.403 51.4956 454.458 55.2299C448.093 59.2323 443.479 64.7047 440.616 71.6469C437.754 78.5891 436.323 86.5146 436.323 95.4232V140.721H485.944V181.511H350.101V140.721H386.742V46.4106H350.101V5.62131H432.64L434.151 36.171L435.412 33.9861C438.415 28.9706 441.938 24.4716 445.971 20.4691C450.585 15.9006 456.3 12.2854 463.115 9.62376C469.931 6.95215 478.198 5.62131 487.926 5.62131H508.853V26.3784C514.578 20.34 521.224 15.2649 528.81 11.1632C542.551 3.72437 558.364 0.00993164 576.249 0.00993164L576.239 0ZM574.928 36.6478C563.589 36.6478 554.041 39.9947 546.304 46.6887C538.558 53.3826 533.814 62.6786 532.073 74.5767H618.114C617.894 63.1057 613.64 53.9189 605.353 47.0065C597.067 40.0941 586.928 36.6478 574.928 36.6478Z" fill="black"/>
</svg>
