<svg width="652" height="179" viewBox="0 0 652 179" fill="none" xmlns="http://www.w3.org/2000/svg">
<g clip-path="url(#clip0_5396_115345)">
<path d="M255.077 0.177032C272.14 0.177032 287.607 3.86233 301.479 11.2232C315.341 18.5841 326.276 29.0097 334.283 42.4998C342.281 55.9802 346.285 71.5458 346.285 89.177C346.285 106.808 342.174 122.374 333.96 135.854C325.747 149.335 314.656 159.76 300.686 167.131C286.716 174.492 271.083 178.177 253.804 178.177C236.526 178.177 221.381 174.492 207.725 167.131C194.069 159.77 183.349 149.344 175.567 135.854C174.686 134.332 173.854 132.78 173.07 131.199C172.248 132.78 171.377 134.332 170.447 135.854C162.233 149.335 151.142 159.76 137.163 167.131C123.193 174.492 107.559 178.177 90.2808 178.177C73.0024 178.177 57.858 174.492 44.2017 167.131C30.5454 159.77 19.8259 149.344 12.0433 135.854C4.25089 122.374 0.354675 106.808 0.354675 89.177C0.354675 71.5458 4.35857 55.9802 12.3566 42.4998C20.3546 29.0194 31.2894 18.5938 45.1611 11.2232C59.023 3.86233 74.4904 0.177032 91.5534 0.177032C108.616 0.177032 124.084 3.86233 137.956 11.2232C151.817 18.5841 162.752 29.0097 170.76 42.4998C171.67 44.0321 172.522 45.5838 173.325 47.1646C174.118 45.5838 174.97 44.0321 175.88 42.4998C183.878 29.0194 194.813 18.5938 208.684 11.2232C222.546 3.86233 238.014 0.177032 255.087 0.177032H255.077ZM255.077 42.4998C246.09 42.4998 237.955 44.4297 230.652 48.2896C223.349 52.1495 217.603 57.6192 213.393 64.6892C209.184 71.7591 207.079 79.925 207.079 89.1673C207.079 98.4097 209.125 106.576 213.227 113.645C217.329 120.715 222.967 126.185 230.153 130.045C237.338 133.905 245.424 135.835 254.411 135.835C263.398 135.835 271.729 133.905 279.081 130.045C286.432 126.185 292.277 120.715 296.594 113.645C300.921 106.576 303.075 98.4097 303.075 89.1673C303.075 79.925 300.97 71.7591 296.76 64.6892C292.551 57.6192 286.795 52.1495 279.501 48.2896C272.199 44.4297 264.064 42.4998 255.077 42.4998ZM92.3561 42.4998C83.3694 42.4998 75.2344 44.4297 67.9314 48.2896C60.6285 52.1495 54.882 57.6192 50.6726 64.6892C46.4631 71.7591 44.3584 79.925 44.3584 89.1673C44.3584 98.4097 46.4044 106.576 50.5061 113.645C54.6079 120.715 60.2467 126.185 67.4321 130.045C74.6176 133.905 82.7037 135.835 91.6807 135.835C100.658 135.835 108.998 133.905 116.35 130.045C123.702 126.185 129.546 120.715 133.864 113.645H166.688C164.808 105.984 163.868 97.8278 163.868 89.1673C163.868 81.4961 164.622 74.2225 166.139 67.3368H133.864C130.76 58.4533 124.064 52.1398 116.771 48.2799C109.468 44.42 101.333 42.4901 92.3464 42.4901L92.3561 42.4998ZM563.993 0.177032C580.851 0.177032 595.936 3.70716 609.27 10.7577C622.603 17.8083 632.95 27.8168 640.312 40.7832C647.674 53.7497 651.355 68.6363 651.355 85.4432C651.355 91.6695 650.924 97.2653 650.072 102.25H520.469L520.655 104.093C521.997 115.663 526.412 124.798 533.91 131.5C541.801 138.55 551.512 142.08 563.034 142.08C579.676 142.08 591.512 135.127 598.55 121.229H646.871L646.205 123.285C640.919 138.958 631.335 151.905 617.434 162.146C602.926 172.833 585.109 178.167 563.993 178.167C546.93 178.167 531.62 174.482 518.071 167.121C504.522 159.76 493.969 149.335 486.392 135.845C478.815 122.364 475.036 106.799 475.036 89.1673C475.036 73.9412 477.758 60.2959 483.201 48.2411H469.143L467.175 48.2702C458.12 48.5127 450.69 50.462 444.875 54.1085C438.649 58.0168 434.136 63.3605 431.336 70.1395C428.536 76.9186 427.137 84.6577 427.137 93.3569V137.59H475.673V177.421H342.8V137.59H378.64V45.4965H342.8V5.66619H423.534L425.012 35.4977L426.246 33.3641C429.183 28.4666 432.628 24.0733 436.574 20.1649C441.087 15.7038 446.676 12.1737 453.343 9.57455C460.01 6.96574 468.096 5.66619 477.611 5.66619H498.081V25.9353C503.68 20.0389 510.181 15.0831 517.601 11.0778C531.042 3.81384 546.509 0.186731 564.003 0.186731L563.993 0.177032ZM562.711 35.9632C551.62 35.9632 542.28 39.2315 534.713 45.7681C527.136 52.3046 522.496 61.3821 520.792 73.0005H604.953C604.737 61.7991 600.577 52.8283 592.471 46.0784C584.365 39.3285 574.449 35.9632 562.711 35.9632Z" fill="white"/>
</g>
<defs>
<clipPath id="clip0_5396_115345">
<rect width="651" height="178" fill="white" transform="translate(0.35498 0.177002)"/>
</clipPath>
</defs>
</svg>
