<svg width="1270" height="635" viewBox="0 0 1270 635" fill="none" xmlns="http://www.w3.org/2000/svg">
<rect width="1270" height="635" fill="#E3E3E8"/>
<mask id="mask0_2998_5917" style="mask-type:luminance" maskUnits="userSpaceOnUse" x="319" y="157" width="629" height="325">
<path d="M947.788 157.712H319.574V481.438H947.788V157.712Z" fill="white"/>
</mask>
<g mask="url(#mask0_2998_5917)">
<path d="M381.535 469.144V480.691H374.654C366.427 480.691 363.346 477.131 363.226 471.088C359.038 477.221 352.516 481.41 342.703 481.41C329.062 481.41 319.578 474.648 319.578 462.981C319.578 449.937 328.792 442.817 346.264 442.817H361.88V439.018C361.88 432.017 356.854 427.71 348.238 427.71C340.49 427.71 335.344 431.389 334.357 436.924H321.164C322.63 424.748 332.951 416.999 348.836 416.999C364.722 416.999 375.013 424.987 375.013 439.856V465.045C375.013 468.246 376.12 469.114 378.932 469.114H381.505L381.535 469.144ZM361.88 452.689H345.665C337.558 452.689 333.011 455.771 333.011 462.143C333.011 467.438 337.438 471.118 344.558 471.118C355.388 471.118 361.88 464.596 361.88 455.143V452.689Z" fill="black"/>
<path d="M410.406 480.721L386.562 417.777H400.833L418.783 466.451L436.613 417.777H450.613L426.651 480.721H410.436H410.406Z" fill="black"/>
<path d="M518.402 469.144V480.691H511.521C503.294 480.691 500.213 477.131 500.093 471.088C495.905 477.221 489.383 481.41 479.571 481.41C465.929 481.41 456.445 474.648 456.445 462.981C456.445 449.937 465.659 442.817 483.131 442.817H498.747V439.018C498.747 432.017 493.721 427.71 485.105 427.71C477.357 427.71 472.211 431.389 471.224 436.924H458.061C459.527 424.748 469.847 416.999 485.733 416.999C501.619 416.999 511.91 424.987 511.91 439.856V465.045C511.91 468.246 513.017 469.114 515.829 469.114H518.402V469.144ZM498.747 452.689H482.532C474.425 452.689 469.878 455.771 469.878 462.143C469.878 467.438 474.305 471.118 481.426 471.118C492.255 471.118 498.747 464.596 498.747 455.143V452.689Z" fill="black"/>
<path d="M579.221 469.024V480.691H528.094V469.024H547.09V407.157L528.094 413.439V401.712L544.338 395.49H560.374V469.054H579.25L579.221 469.024Z" fill="black"/>
<path d="M650.035 469.144V480.691H643.154C634.927 480.691 631.846 477.131 631.726 471.088C627.538 477.221 621.016 481.41 611.203 481.41C597.561 481.41 588.078 474.648 588.078 462.981C588.078 449.937 597.292 442.817 614.764 442.817H630.379V439.018C630.379 432.017 625.354 427.71 616.738 427.71C608.99 427.71 603.844 431.389 602.857 436.924H589.693C591.16 424.748 601.48 416.999 617.366 416.999C633.252 416.999 643.543 424.987 643.543 439.856V465.045C643.543 468.246 644.65 469.114 647.462 469.114H650.035V469.144ZM630.35 452.689H614.135C606.028 452.689 601.48 455.771 601.48 462.143C601.48 467.438 605.908 471.118 613.028 471.118C623.858 471.118 630.35 464.596 630.35 455.143V452.689Z" fill="black"/>
<path d="M721.118 444.821V480.72H707.716V446.047C707.716 434.859 702.929 428.726 693.445 428.726C683.483 428.726 677.47 435.966 677.47 448.141V480.72H664.188V417.777H675.735L677.201 426.003C681.001 421.097 686.924 417.029 696.497 417.029C709.9 417.029 721.088 424.269 721.088 444.821H721.118Z" fill="black"/>
<path d="M737.386 449.368C737.386 429.953 749.801 417.029 768.738 417.029C784.833 417.029 794.915 426.003 797.368 440.273H783.487C781.752 432.884 776.486 428.337 768.499 428.337C757.938 428.337 750.908 437.072 750.908 449.368C750.908 461.664 757.908 470.13 768.499 470.13C776.367 470.13 781.781 465.463 783.367 458.193H797.368C795.034 472.464 784.325 481.439 768.349 481.439C749.412 481.439 737.355 469.023 737.355 449.368H737.386Z" fill="black"/>
<path d="M870.904 444.821V480.721H857.502V445.928C857.502 435.098 852.715 428.726 842.872 428.726C833.03 428.726 826.658 436.115 826.658 448.022V480.721H813.375V394.681H826.658V425.795C830.965 420.379 837.488 417.059 845.954 417.059C860.703 417.059 870.904 425.795 870.904 444.851V444.821Z" fill="black"/>
<path d="M900.467 452.3V452.928C900.826 463.609 907.468 470.639 917.789 470.639C925.657 470.639 931.67 466.57 933.405 459.57H946.688C944.474 471.985 934.033 481.439 918.537 481.439C898.881 481.439 886.586 468.664 886.586 449.368C886.586 430.072 898.881 417.029 917.19 417.029C935.499 417.029 947.436 428.576 947.795 447.035C947.795 448.381 947.675 450.475 947.436 452.33H900.467V452.3ZM900.975 442.338H934.033C932.926 433.004 926.524 427.709 917.31 427.709C909.083 427.709 901.933 433.363 900.946 442.338H900.975Z" fill="black"/>
<path d="M679.357 250.394C682.08 245.757 688.841 245.757 691.533 250.394L720.462 299.816C723.184 304.452 719.774 310.226 714.359 310.226H656.501C651.086 310.226 647.706 304.452 650.398 299.816L679.327 250.394H679.357Z" fill="black"/>
<path d="M661.882 217.486C664.514 212.879 664.514 207.195 661.882 202.558L638.158 161.154C635.496 156.517 628.854 156.517 626.192 161.154L546.794 299.756C544.131 304.393 547.452 310.197 552.777 310.197H600.195C605.49 310.197 610.366 307.355 612.998 302.748L661.852 217.456L661.882 217.486Z" fill="black"/>
</g>
</svg>
